<svg width="431" height="392" viewBox="0 0 431 392" fill="none" xmlns="http://www.w3.org/2000/svg">
<g filter="url(#filter0_f_115_1477)">
<path d="M215 315C291.768 315 354 252.768 354 176C354 99.2324 291.768 37 215 37C138.232 37 76 99.2324 76 176C76 252.768 138.232 315 215 315Z" fill="url(#paint0_linear_115_1477)"/>
</g>
<path d="M105.314 212.715H58.3374V207.894H105.314V168.031H110.137V250.168H184.641V254.989H107.726H105.315V252.578V212.717L105.314 212.715ZM327.882 212.715H374.859V207.894H327.882V168.031H323.061V250.168H252.529V254.989H325.473H327.884V252.578V212.717L327.882 212.715Z" fill="url(#paint1_linear_115_1477)"/>
<path d="M214.187 191.056H161.348H158.937V188.645V151.396H163.758V186.235H214.187V137.583V73.438H219.008V137.583V156.099H269.436V121.26H274.257V158.509V160.92H271.846H219.008V231.836H214.187V191.056Z" fill="url(#paint2_linear_115_1477)"/>
<path d="M216.598 53.5305C223.694 53.5305 229.445 59.2835 229.445 66.3777C229.445 73.4735 223.692 79.2272 216.598 79.2272C209.502 79.2272 203.749 73.4743 203.749 66.3777C203.749 59.2835 209.502 53.5305 216.598 53.5305Z" fill="url(#paint3_linear_115_1477)"/>
<path d="M274.259 108.408C281.353 108.408 287.106 114.161 287.106 121.257C287.106 128.352 281.353 134.104 274.259 134.104C267.163 134.104 261.411 128.352 261.411 121.257C261.411 114.161 267.164 108.408 274.259 108.408Z" fill="url(#paint4_linear_115_1477)"/>
<path d="M163.761 133.221C173.795 133.221 181.931 141.357 181.931 151.392C181.931 161.427 173.795 169.561 163.761 169.561C153.727 169.561 145.589 161.425 145.589 151.392C145.589 141.355 153.725 133.221 163.761 133.221Z" fill="url(#paint5_linear_115_1477)"/>
<path d="M107.727 158.946C112.745 158.946 116.81 163.013 116.81 168.029C116.81 173.047 112.744 177.114 107.727 177.114C102.71 177.114 98.6421 173.046 98.6421 168.029C98.6421 163.012 102.709 158.946 107.727 158.946Z" fill="url(#paint6_linear_115_1477)"/>
<path d="M58.4421 191.718C68.4785 191.718 76.6141 199.855 76.6141 209.89C76.6141 219.924 68.4777 228.061 58.4421 228.061C48.4081 228.061 40.2717 219.924 40.2717 209.89C40.2717 199.854 48.4065 191.718 58.4421 191.718Z" fill="url(#paint7_linear_115_1477)"/>
<path d="M374.966 200.805C379.985 200.805 384.05 204.873 384.05 209.89C384.05 214.905 379.984 218.973 374.966 218.973C369.948 218.973 365.882 214.905 365.882 209.89C365.882 204.873 369.949 200.805 374.966 200.805Z" fill="url(#paint8_linear_115_1477)"/>
<path d="M325.472 149.859C335.506 149.859 343.644 157.996 343.644 168.031C343.644 178.068 335.508 186.202 325.472 186.202C315.438 186.202 307.303 178.068 307.303 168.031C307.303 157.995 315.437 149.859 325.472 149.859Z" fill="url(#paint9_linear_115_1477)"/>
<path d="M218.072 229.666C239.843 229.666 257.492 247.315 257.492 269.086C257.492 290.858 239.843 308.507 218.072 308.507C196.3 308.507 178.651 290.858 178.651 269.086C178.651 247.315 196.301 229.666 218.072 229.666Z" fill="url(#paint10_linear_115_1477)"/>
<path d="M218.072 229.666C239.843 229.666 257.492 247.315 257.492 269.086C257.492 290.858 239.843 308.507 218.072 308.507C196.3 308.507 178.651 290.858 178.651 269.086C178.651 247.315 196.301 229.666 218.072 229.666Z" fill="url(#paint11_linear_115_1477)"/>
<path d="M218.074 235.778C222.579 235.778 226.881 236.676 230.808 238.303C234.89 239.993 238.558 242.466 241.626 245.535C244.694 248.601 247.167 252.27 248.858 256.352C250.484 260.279 251.383 264.582 251.383 269.088C251.383 273.593 250.484 277.895 248.858 281.823C247.167 285.905 244.694 289.572 241.626 292.64C238.558 295.708 234.89 298.183 230.808 299.872C226.882 301.498 222.577 302.397 218.074 302.397C213.567 302.397 209.265 301.498 205.338 299.872C201.256 298.181 197.589 295.708 194.52 292.64C191.454 289.572 188.979 285.905 187.288 281.823C185.662 277.896 184.763 273.593 184.763 269.088C184.763 264.581 185.662 260.279 187.288 256.352C188.979 252.27 191.454 248.601 194.52 245.535C197.589 242.466 201.256 239.992 205.338 238.303C209.265 236.676 213.567 235.778 218.074 235.778ZM191.009 281.845H200.648C199.987 280.106 199.467 278.34 199.088 276.562C198.683 274.655 198.439 272.726 198.358 270.788H188.209C188.313 272.676 188.597 274.523 189.04 276.31C189.518 278.238 190.182 280.092 191.009 281.845ZM204.301 281.845H216.373V270.788H201.746C201.833 272.613 202.079 274.436 202.487 276.244C202.912 278.129 203.518 280.002 204.301 281.845ZM219.774 281.845H231.846C232.628 280.003 233.233 278.129 233.657 276.245C234.065 274.437 234.311 272.613 234.4 270.789H219.773L219.774 281.845ZM235.499 281.845H245.138C245.966 280.093 246.63 278.237 247.107 276.31C247.549 274.524 247.832 272.676 247.937 270.787H237.788C237.706 272.724 237.462 274.654 237.057 276.562C236.679 278.339 236.16 280.106 235.499 281.845ZM243.249 285.245H234.01C233.569 286.132 233.086 287.01 232.568 287.881C231.972 288.877 231.32 289.868 230.616 290.844C229.399 292.533 228.026 294.171 226.505 295.745C225.602 296.679 224.645 297.593 223.628 298.485C226.165 298.009 228.59 297.211 230.858 296.137C233.978 294.66 236.805 292.656 239.221 290.237H239.224C240.139 289.324 240.997 288.349 241.786 287.323C242.302 286.655 242.791 285.96 243.251 285.246L243.249 285.245ZM230.176 285.245H219.772V297.296C221.178 296.162 222.483 294.991 223.68 293.784C225.251 292.199 226.646 290.556 227.866 288.863C228.406 288.116 228.923 287.338 229.416 286.537C229.68 286.104 229.933 285.674 230.174 285.243L230.176 285.245ZM216.371 285.245H205.967C206.208 285.676 206.462 286.106 206.725 286.538C207.218 287.34 207.735 288.117 208.275 288.865C209.497 290.557 210.891 292.201 212.461 293.785C213.661 294.993 214.962 296.164 216.369 297.297V285.247L216.371 285.245ZM202.133 285.245H192.896C193.354 285.96 193.844 286.654 194.358 287.322C195.148 288.348 196.005 289.323 196.92 290.236H196.923C199.339 292.653 202.166 294.66 205.286 296.136C207.557 297.21 209.982 298.009 212.518 298.484C211.504 297.592 210.544 296.678 209.642 295.744C208.118 294.17 206.747 292.532 205.53 290.843C204.824 289.867 204.173 288.878 203.578 287.88C203.057 287.009 202.577 286.13 202.135 285.244L202.133 285.245ZM192.895 252.929H202.296C202.706 252.114 203.153 251.298 203.634 250.486C204.192 249.546 204.794 248.618 205.434 247.705C206.665 245.955 208.058 244.253 209.612 242.611C210.561 241.607 211.572 240.625 212.641 239.667C210.071 240.138 207.614 240.939 205.316 242.024C202.183 243.502 199.345 245.512 196.921 247.938C195.408 249.451 194.054 251.125 192.895 252.929ZM206.14 252.929H216.371V240.929C214.961 242.093 213.649 243.309 212.437 244.562C210.858 246.193 209.447 247.899 208.212 249.657C207.708 250.371 207.236 251.095 206.795 251.82C206.571 252.187 206.354 252.557 206.144 252.93L206.14 252.929ZM219.772 252.929H230.001C229.792 252.556 229.574 252.187 229.351 251.819C228.91 251.094 228.436 250.372 227.933 249.656C226.696 247.897 225.287 246.194 223.708 244.561C222.497 243.308 221.183 242.093 219.774 240.928V252.929H219.772ZM233.847 252.929H243.249C242.79 252.215 242.302 251.522 241.787 250.854C241.002 249.835 240.147 248.86 239.222 247.938C236.799 245.51 233.962 243.502 230.827 242.024C228.531 240.939 226.074 240.138 223.503 239.667C224.572 240.624 225.584 241.606 226.534 242.611C228.086 244.253 229.48 245.956 230.71 247.705C231.35 248.618 231.953 249.546 232.51 250.486C232.991 251.299 233.438 252.112 233.847 252.929ZM245.135 256.331H235.354C236.029 258.07 236.565 259.836 236.964 261.621C237.391 263.529 237.659 265.457 237.766 267.388H247.937C247.832 265.498 247.549 263.651 247.107 261.865C246.629 259.938 245.965 258.083 245.138 256.331L245.135 256.331ZM231.692 256.331H219.772V267.388H234.375C234.264 265.574 233.993 263.759 233.564 261.953C233.112 260.05 232.488 258.17 231.692 256.331ZM216.371 256.331H204.452C203.656 258.17 203.033 260.05 202.582 261.951C202.153 263.757 201.881 265.574 201.771 267.386H216.374V256.33L216.371 256.331ZM200.791 256.331H191.009C190.181 258.083 189.517 259.937 189.04 261.865C188.597 263.651 188.313 265.497 188.209 267.387H198.38C198.488 265.455 198.753 263.529 199.182 261.62C199.582 259.836 200.118 258.069 200.793 256.33L200.791 256.331Z" fill="url(#paint12_linear_115_1477)"/>
<path d="M218.074 235.778C222.579 235.778 226.881 236.676 230.808 238.303C234.89 239.993 238.558 242.466 241.626 245.535C244.694 248.601 247.167 252.27 248.858 256.352C250.484 260.279 251.383 264.582 251.383 269.088C251.383 273.593 250.484 277.895 248.858 281.823C247.167 285.905 244.694 289.572 241.626 292.64C238.558 295.708 234.89 298.183 230.808 299.872C226.882 301.498 222.577 302.397 218.074 302.397C213.567 302.397 209.265 301.498 205.338 299.872C201.256 298.181 197.589 295.708 194.52 292.64C191.454 289.572 188.979 285.905 187.288 281.823C185.662 277.896 184.763 273.593 184.763 269.088C184.763 264.581 185.662 260.279 187.288 256.352C188.979 252.27 191.454 248.601 194.52 245.535C197.589 242.466 201.256 239.992 205.338 238.303C209.265 236.676 213.567 235.778 218.074 235.778ZM191.009 281.845H200.648C199.987 280.106 199.467 278.34 199.088 276.562C198.683 274.655 198.439 272.726 198.358 270.788H188.209C188.313 272.676 188.597 274.523 189.04 276.31C189.518 278.238 190.182 280.092 191.009 281.845ZM204.301 281.845H216.373V270.788H201.746C201.833 272.613 202.079 274.436 202.487 276.244C202.912 278.129 203.518 280.002 204.301 281.845ZM219.774 281.845H231.846C232.628 280.003 233.233 278.129 233.657 276.245C234.065 274.437 234.311 272.613 234.4 270.789H219.773L219.774 281.845ZM235.499 281.845H245.138C245.966 280.093 246.63 278.237 247.107 276.31C247.549 274.524 247.832 272.676 247.937 270.787H237.788C237.706 272.724 237.462 274.654 237.057 276.562C236.679 278.339 236.16 280.106 235.499 281.845ZM243.249 285.245H234.01C233.569 286.132 233.086 287.01 232.568 287.881C231.972 288.877 231.32 289.868 230.616 290.844C229.399 292.533 228.026 294.171 226.505 295.745C225.602 296.679 224.645 297.593 223.628 298.485C226.165 298.009 228.59 297.211 230.858 296.137C233.978 294.66 236.805 292.656 239.221 290.237H239.224C240.139 289.324 240.997 288.349 241.786 287.323C242.302 286.655 242.791 285.96 243.251 285.246L243.249 285.245ZM230.176 285.245H219.772V297.296C221.178 296.162 222.483 294.991 223.68 293.784C225.251 292.199 226.646 290.556 227.866 288.863C228.406 288.116 228.923 287.338 229.416 286.537C229.68 286.104 229.933 285.674 230.174 285.243L230.176 285.245ZM216.371 285.245H205.967C206.208 285.676 206.462 286.106 206.725 286.538C207.218 287.34 207.735 288.117 208.275 288.865C209.497 290.557 210.891 292.201 212.461 293.785C213.661 294.993 214.962 296.164 216.369 297.297V285.247L216.371 285.245ZM202.133 285.245H192.896C193.354 285.96 193.844 286.654 194.358 287.322C195.148 288.348 196.005 289.323 196.92 290.236H196.923C199.339 292.653 202.166 294.66 205.286 296.136C207.557 297.21 209.982 298.009 212.518 298.484C211.504 297.592 210.544 296.678 209.642 295.744C208.118 294.17 206.747 292.532 205.53 290.843C204.824 289.867 204.173 288.878 203.578 287.88C203.057 287.009 202.577 286.13 202.135 285.244L202.133 285.245ZM192.895 252.929H202.296C202.706 252.114 203.153 251.298 203.634 250.486C204.192 249.546 204.794 248.618 205.434 247.705C206.665 245.955 208.058 244.253 209.612 242.611C210.561 241.607 211.572 240.625 212.641 239.667C210.071 240.138 207.614 240.939 205.316 242.024C202.183 243.502 199.345 245.512 196.921 247.938C195.408 249.451 194.054 251.125 192.895 252.929ZM206.14 252.929H216.371V240.929C214.961 242.093 213.649 243.309 212.437 244.562C210.858 246.193 209.447 247.899 208.212 249.657C207.708 250.371 207.236 251.095 206.795 251.82C206.571 252.187 206.354 252.557 206.144 252.93L206.14 252.929ZM219.772 252.929H230.001C229.792 252.556 229.574 252.187 229.351 251.819C228.91 251.094 228.436 250.372 227.933 249.656C226.696 247.897 225.287 246.194 223.708 244.561C222.497 243.308 221.183 242.093 219.774 240.928V252.929H219.772ZM233.847 252.929H243.249C242.79 252.215 242.302 251.522 241.787 250.854C241.002 249.835 240.147 248.86 239.222 247.938C236.799 245.51 233.962 243.502 230.827 242.024C228.531 240.939 226.074 240.138 223.503 239.667C224.572 240.624 225.584 241.606 226.534 242.611C228.086 244.253 229.48 245.956 230.71 247.705C231.35 248.618 231.953 249.546 232.51 250.486C232.991 251.299 233.438 252.112 233.847 252.929ZM245.135 256.331H235.354C236.029 258.07 236.565 259.836 236.964 261.621C237.391 263.529 237.659 265.457 237.766 267.388H247.937C247.832 265.498 247.549 263.651 247.107 261.865C246.629 259.938 245.965 258.083 245.138 256.331L245.135 256.331ZM231.692 256.331H219.772V267.388H234.375C234.264 265.574 233.993 263.759 233.564 261.953C233.112 260.05 232.488 258.17 231.692 256.331ZM216.371 256.331H204.452C203.656 258.17 203.033 260.05 202.582 261.951C202.153 263.757 201.881 265.574 201.771 267.386H216.374V256.33L216.371 256.331ZM200.791 256.331H191.009C190.181 258.083 189.517 259.937 189.04 261.865C188.597 263.651 188.313 265.497 188.209 267.387H198.38C198.488 265.455 198.753 263.529 199.182 261.62C199.582 259.836 200.118 258.069 200.793 256.33L200.791 256.331Z" fill="url(#paint13_linear_115_1477)"/>
<defs>
<filter id="filter0_f_115_1477" x="-0.720634" y="-39.7206" width="431.441" height="431.441" filterUnits="userSpaceOnUse" color-interpolation-filters="sRGB">
<feFlood flood-opacity="0" result="BackgroundImageFix"/>
<feBlend mode="normal" in="SourceGraphic" in2="BackgroundImageFix" result="shape"/>
<feGaussianBlur stdDeviation="38.3603" result="effect1_foregroundBlur_115_1477"/>
</filter>
<linearGradient id="paint0_linear_115_1477" x1="214.742" y1="1.12728" x2="214.742" y2="466.054" gradientUnits="userSpaceOnUse">
<stop stop-color="#0D112C"/>
<stop offset="0.709581" stop-color="#2F3687"/>
</linearGradient>
<linearGradient id="paint1_linear_115_1477" x1="216.598" y1="168.031" x2="216.598" y2="254.989" gradientUnits="userSpaceOnUse">
<stop stop-color="white"/>
<stop offset="1" stop-color="#BABCD7"/>
</linearGradient>
<linearGradient id="paint2_linear_115_1477" x1="216.597" y1="73.438" x2="216.597" y2="231.836" gradientUnits="userSpaceOnUse">
<stop stop-color="white"/>
<stop offset="1" stop-color="#BABCD7"/>
</linearGradient>
<linearGradient id="paint3_linear_115_1477" x1="216.597" y1="53.5305" x2="216.597" y2="79.2272" gradientUnits="userSpaceOnUse">
<stop stop-color="#BABCD7"/>
<stop offset="1" stop-color="#2F3687"/>
</linearGradient>
<linearGradient id="paint4_linear_115_1477" x1="274.259" y1="108.408" x2="274.259" y2="134.104" gradientUnits="userSpaceOnUse">
<stop stop-color="#B4BEE6"/>
<stop offset="1" stop-color="#8F9ED9"/>
</linearGradient>
<linearGradient id="paint5_linear_115_1477" x1="163.76" y1="133.221" x2="163.76" y2="169.561" gradientUnits="userSpaceOnUse">
<stop stop-color="#FF698D"/>
<stop offset="1" stop-color="#FF3868"/>
</linearGradient>
<linearGradient id="paint6_linear_115_1477" x1="107.726" y1="158.946" x2="107.726" y2="177.114" gradientUnits="userSpaceOnUse">
<stop stop-color="#BABCD7"/>
<stop offset="1" stop-color="#2F3687"/>
</linearGradient>
<linearGradient id="paint7_linear_115_1477" x1="58.4429" y1="191.718" x2="58.4429" y2="228.061" gradientUnits="userSpaceOnUse">
<stop stop-color="#B4BEE6"/>
<stop offset="1" stop-color="#8F9ED9"/>
</linearGradient>
<linearGradient id="paint8_linear_115_1477" x1="374.966" y1="200.805" x2="374.966" y2="218.973" gradientUnits="userSpaceOnUse">
<stop stop-color="#FF698D"/>
<stop offset="1" stop-color="#FF3868"/>
</linearGradient>
<linearGradient id="paint9_linear_115_1477" x1="325.474" y1="149.859" x2="325.474" y2="186.202" gradientUnits="userSpaceOnUse">
<stop stop-color="#BABCD7"/>
<stop offset="1" stop-color="#2F3687"/>
</linearGradient>
<linearGradient id="paint10_linear_115_1477" x1="218.072" y1="229.666" x2="218.072" y2="308.507" gradientUnits="userSpaceOnUse">
<stop stop-color="white"/>
<stop offset="1" stop-color="#BABCD7"/>
</linearGradient>
<linearGradient id="paint11_linear_115_1477" x1="218.072" y1="229.666" x2="218.072" y2="308.507" gradientUnits="userSpaceOnUse">
<stop stop-color="#8F9ED9"/>
<stop offset="1" stop-color="#2F3687"/>
</linearGradient>
<linearGradient id="paint12_linear_115_1477" x1="218.073" y1="235.778" x2="218.073" y2="302.397" gradientUnits="userSpaceOnUse">
<stop stop-color="#8F9ED9"/>
<stop offset="1" stop-color="#2F3687"/>
</linearGradient>
<linearGradient id="paint13_linear_115_1477" x1="218.073" y1="235.778" x2="218.073" y2="302.397" gradientUnits="userSpaceOnUse">
<stop stop-color="white"/>
<stop offset="1" stop-color="#BABCD7"/>
</linearGradient>
</defs>
</svg>
