<svg width="390" height="189" viewBox="0 0 390 189" fill="none" xmlns="http://www.w3.org/2000/svg">
<g filter="url(#filter0_d_115_1481)">
<rect x="39.8484" y="28" width="319.242" height="63" rx="8" fill="#F8FAFC"/>
</g>
<g filter="url(#filter1_d_115_1481)">
<rect x="49.8247" y="38" width="299.289" height="43" rx="6" fill="white"/>
<rect x="50.3247" y="38.5" width="298.289" height="42" rx="5.5" stroke="#D1D5DC"/>
</g>
<rect width="264" height="14.0984" transform="translate(60.7986 52.0984)" fill="#BEDBFF"/>
<path d="M70.1586 65.1476V60.7396C70.1586 60.2596 70.1133 59.8196 70.0226 59.4196C69.9319 59.0142 69.7853 58.6622 69.5826 58.3636C69.3853 58.0596 69.1266 57.8249 68.8066 57.6596C68.4919 57.4942 68.1079 57.4116 67.6546 57.4116C67.2386 57.4116 66.8706 57.4836 66.5506 57.6276C66.2359 57.7716 65.9693 57.9796 65.7506 58.2516C65.5373 58.5182 65.3746 58.8436 65.2626 59.2276C65.1506 59.6116 65.0946 60.0489 65.0946 60.5396L64.2626 60.3556C64.2626 59.4702 64.4173 58.7262 64.7266 58.1236C65.0359 57.5209 65.4626 57.0649 66.0066 56.7556C66.5506 56.4462 67.1746 56.2916 67.8786 56.2916C68.3959 56.2916 68.8466 56.3716 69.2306 56.5316C69.6199 56.6916 69.9479 56.9076 70.2146 57.1796C70.4866 57.4516 70.7053 57.7636 70.8706 58.1156C71.0359 58.4622 71.1559 58.8329 71.2306 59.2276C71.3053 59.6169 71.3426 60.0062 71.3426 60.3956V65.1476H70.1586ZM63.9106 65.1476V53.6276H64.9746V60.1316H65.0946V65.1476H63.9106ZM78.4426 65.1476C77.9573 65.2489 77.4773 65.2889 77.0026 65.2676C76.5333 65.2462 76.1119 65.1449 75.7386 64.9636C75.3706 64.7822 75.0906 64.4996 74.8986 64.1156C74.7439 63.7956 74.6586 63.4729 74.6426 63.1476C74.6319 62.8169 74.6266 62.4409 74.6266 62.0196V54.1076H75.7946V61.9716C75.7946 62.3342 75.7973 62.6382 75.8026 62.8836C75.8133 63.1236 75.8693 63.3369 75.9706 63.5236C76.1626 63.8809 76.4666 64.0942 76.8826 64.1636C77.3039 64.2329 77.8239 64.2169 78.4426 64.1156V65.1476ZM72.7786 57.5156V56.5076H78.4426V57.5156H72.7786ZM83.8906 65.1476C83.4053 65.2489 82.9253 65.2889 82.4506 65.2676C81.9813 65.2462 81.5599 65.1449 81.1866 64.9636C80.8186 64.7822 80.5386 64.4996 80.3466 64.1156C80.1919 63.7956 80.1066 63.4729 80.0906 63.1476C80.0799 62.8169 80.0746 62.4409 80.0746 62.0196V54.1076H81.2426V61.9716C81.2426 62.3342 81.2453 62.6382 81.2506 62.8836C81.2613 63.1236 81.3173 63.3369 81.4186 63.5236C81.6106 63.8809 81.9146 64.0942 82.3306 64.1636C82.7519 64.2329 83.2719 64.2169 83.8906 64.1156V65.1476ZM78.2266 57.5156V56.5076H83.8906V57.5156H78.2266ZM89.798 65.3876C89.0033 65.3876 88.3313 65.1876 87.782 64.7876C87.2326 64.3822 86.8166 63.8356 86.534 63.1476C86.2513 62.4542 86.11 61.6782 86.11 60.8196C86.11 59.9449 86.2513 59.1662 86.534 58.4836C86.822 57.7956 87.2433 57.2542 87.798 56.8596C88.3526 56.4649 89.0353 56.2676 89.846 56.2676C90.6353 56.2676 91.3126 56.4676 91.878 56.8676C92.4433 57.2676 92.8753 57.8116 93.174 58.4996C93.478 59.1876 93.63 59.9609 93.63 60.8196C93.63 61.6836 93.478 62.4596 93.174 63.1476C92.87 63.8356 92.4326 64.3822 91.862 64.7876C91.2913 65.1876 90.6033 65.3876 89.798 65.3876ZM85.91 68.9876V56.5076H86.966V63.0116H87.094V68.9876H85.91ZM89.678 64.2916C90.2806 64.2916 90.782 64.1396 91.182 63.8356C91.582 63.5316 91.8806 63.1182 92.078 62.5956C92.2806 62.0676 92.382 61.4756 92.382 60.8196C92.382 60.1689 92.2833 59.5822 92.086 59.0596C91.8886 58.5369 91.5873 58.1236 91.182 57.8196C90.782 57.5156 90.2726 57.3636 89.654 57.3636C89.0513 57.3636 88.55 57.5102 88.15 57.8036C87.7553 58.0969 87.4593 58.5049 87.262 59.0276C87.0646 59.5449 86.966 60.1422 86.966 60.8196C86.966 61.4862 87.0646 62.0836 87.262 62.6116C87.4593 63.1342 87.758 63.5449 88.158 63.8436C88.558 64.1422 89.0646 64.2916 89.678 64.2916ZM98.8526 65.3796C97.8392 65.3796 97.0046 65.1609 96.3486 64.7236C95.6979 64.2862 95.2979 63.6782 95.1486 62.8996L96.3486 62.6996C96.4766 63.1902 96.7672 63.5822 97.2206 63.8756C97.6792 64.1636 98.2446 64.3076 98.9166 64.3076C99.5726 64.3076 100.09 64.1716 100.469 63.8996C100.847 63.6222 101.037 63.2462 101.037 62.7716C101.037 62.5049 100.975 62.2889 100.853 62.1236C100.735 61.9529 100.493 61.7956 100.125 61.6516C99.7566 61.5076 99.2072 61.3369 98.4766 61.1396C97.6926 60.9262 97.0792 60.7129 96.6366 60.4996C96.1939 60.2862 95.8792 60.0409 95.6926 59.7636C95.5059 59.4809 95.4126 59.1369 95.4126 58.7316C95.4126 58.2409 95.5512 57.8116 95.8286 57.4436C96.1059 57.0702 96.4899 56.7822 96.9806 56.5796C97.4712 56.3716 98.0419 56.2676 98.6926 56.2676C99.3432 56.2676 99.9246 56.3742 100.437 56.5876C100.954 56.7956 101.37 57.0889 101.685 57.4676C101.999 57.8462 102.186 58.2862 102.245 58.7876L101.045 59.0036C100.965 58.4969 100.711 58.0969 100.285 57.8036C99.8632 57.5049 99.3272 57.3502 98.6766 57.3396C98.0632 57.3236 97.5646 57.4409 97.1806 57.6916C96.7966 57.9369 96.6046 58.2649 96.6046 58.6756C96.6046 58.9049 96.6739 59.1022 96.8126 59.2676C96.9512 59.4276 97.2019 59.5796 97.5646 59.7236C97.9326 59.8676 98.4552 60.0249 99.1326 60.1956C99.9273 60.3982 100.551 60.6116 101.005 60.8356C101.458 61.0596 101.781 61.3236 101.973 61.6276C102.165 61.9316 102.261 62.3076 102.261 62.7556C102.261 63.5716 101.957 64.2142 101.349 64.6836C100.746 65.1476 99.9139 65.3796 98.8526 65.3796ZM104.995 63.8676V62.4996H106.363V63.8676H104.995ZM105.003 59.1556V57.7876H106.371V59.1556H105.003ZM111.087 53.6276H112.295L109.223 65.1476H108.015L111.087 53.6276ZM115.376 53.6276H116.584L113.512 65.1476H112.304L115.376 53.6276ZM120.827 65.1476L118.187 56.4996L119.363 56.5076L121.411 63.2196L123.467 56.5076H124.539L126.595 63.2196L128.659 56.5076H129.827L127.187 65.1476H126.163L124.003 58.2676L121.851 65.1476H120.827ZM133.428 65.1476L130.788 56.4996L131.964 56.5076L134.012 63.2196L136.068 56.5076H137.14L139.196 63.2196L141.26 56.5076H142.428L139.788 65.1476H138.764L136.604 58.2676L134.452 65.1476H133.428ZM146.029 65.1476L143.389 56.4996L144.565 56.5076L146.613 63.2196L148.669 56.5076H149.741L151.797 63.2196L153.861 56.5076H155.029L152.389 65.1476H151.365L149.205 58.2676L147.053 65.1476H146.029ZM155.733 65.1476V63.7796H157.101V65.1476H155.733ZM160.052 54.8676V53.5476H161.228V54.8676H160.052ZM160.052 65.1476V56.5076H161.228V65.1476H160.052ZM170.186 65.1476V60.7396C170.186 60.2596 170.141 59.8196 170.05 59.4196C169.959 59.0142 169.813 58.6622 169.61 58.3636C169.413 58.0596 169.154 57.8249 168.834 57.6596C168.519 57.4942 168.135 57.4116 167.682 57.4116C167.266 57.4116 166.898 57.4836 166.578 57.6276C166.263 57.7716 165.997 57.9796 165.778 58.2516C165.565 58.5182 165.402 58.8436 165.29 59.2276C165.178 59.6116 165.122 60.0489 165.122 60.5396L164.29 60.3556C164.29 59.4702 164.445 58.7262 164.754 58.1236C165.063 57.5209 165.49 57.0649 166.034 56.7556C166.578 56.4462 167.202 56.2916 167.906 56.2916C168.423 56.2916 168.874 56.3716 169.258 56.5316C169.647 56.6916 169.975 56.9076 170.242 57.1796C170.514 57.4516 170.733 57.7636 170.898 58.1156C171.063 58.4622 171.183 58.8329 171.258 59.2276C171.333 59.6169 171.37 60.0062 171.37 60.3956V65.1476H170.186ZM163.938 65.1476V56.5076H165.002V58.6356H165.122V65.1476H163.938ZM176.99 65.3796C175.977 65.3796 175.142 65.1609 174.486 64.7236C173.835 64.2862 173.435 63.6782 173.286 62.8996L174.486 62.6996C174.614 63.1902 174.905 63.5822 175.358 63.8756C175.817 64.1636 176.382 64.3076 177.054 64.3076C177.71 64.3076 178.227 64.1716 178.606 63.8996C178.985 63.6222 179.174 63.2462 179.174 62.7716C179.174 62.5049 179.113 62.2889 178.99 62.1236C178.873 61.9529 178.63 61.7956 178.262 61.6516C177.894 61.5076 177.345 61.3369 176.614 61.1396C175.83 60.9262 175.217 60.7129 174.774 60.4996C174.331 60.2862 174.017 60.0409 173.83 59.7636C173.643 59.4809 173.55 59.1369 173.55 58.7316C173.55 58.2409 173.689 57.8116 173.966 57.4436C174.243 57.0702 174.627 56.7822 175.118 56.5796C175.609 56.3716 176.179 56.2676 176.83 56.2676C177.481 56.2676 178.062 56.3742 178.574 56.5876C179.091 56.7956 179.507 57.0889 179.822 57.4676C180.137 57.8462 180.323 58.2862 180.382 58.7876L179.182 59.0036C179.102 58.4969 178.849 58.0969 178.422 57.8036C178.001 57.5049 177.465 57.3502 176.814 57.3396C176.201 57.3236 175.702 57.4409 175.318 57.6916C174.934 57.9369 174.742 58.2649 174.742 58.6756C174.742 58.9049 174.811 59.1022 174.95 59.2676C175.089 59.4276 175.339 59.5796 175.702 59.7236C176.07 59.8676 176.593 60.0249 177.27 60.1956C178.065 60.3982 178.689 60.6116 179.142 60.8356C179.595 61.0596 179.918 61.3236 180.11 61.6276C180.302 61.9316 180.398 62.3076 180.398 62.7556C180.398 63.5716 180.094 64.2142 179.486 64.6836C178.883 65.1476 178.051 65.3796 176.99 65.3796ZM187.196 65.1476C186.711 65.2489 186.231 65.2889 185.756 65.2676C185.287 65.2462 184.866 65.1449 184.492 64.9636C184.124 64.7822 183.844 64.4996 183.652 64.1156C183.498 63.7956 183.412 63.4729 183.396 63.1476C183.386 62.8169 183.38 62.4409 183.38 62.0196V54.1076H184.548V61.9716C184.548 62.3342 184.551 62.6382 184.556 62.8836C184.567 63.1236 184.623 63.3369 184.724 63.5236C184.916 63.8809 185.22 64.0942 185.636 64.1636C186.058 64.2329 186.578 64.2169 187.196 64.1156V65.1476ZM181.532 57.5156V56.5076H187.196V57.5156H181.532ZM191.691 65.3876C191.04 65.3876 190.493 65.2702 190.051 65.0356C189.613 64.8009 189.285 64.4889 189.067 64.0996C188.848 63.7102 188.739 63.2862 188.739 62.8276C188.739 62.3582 188.832 61.9582 189.019 61.6276C189.211 61.2916 189.469 61.0169 189.795 60.8036C190.125 60.5902 190.507 60.4276 190.939 60.3156C191.376 60.2089 191.859 60.1156 192.387 60.0356C192.92 59.9502 193.44 59.8782 193.947 59.8196C194.459 59.7556 194.907 59.6942 195.291 59.6356L194.875 59.8916C194.891 59.0382 194.725 58.4062 194.379 57.9956C194.032 57.5849 193.429 57.3796 192.571 57.3796C191.979 57.3796 191.477 57.5129 191.067 57.7796C190.661 58.0462 190.376 58.4676 190.211 59.0436L189.067 58.7076C189.264 57.9342 189.661 57.3342 190.259 56.9076C190.856 56.4809 191.632 56.2676 192.587 56.2676C193.376 56.2676 194.045 56.4169 194.595 56.7156C195.149 57.0089 195.541 57.4356 195.771 57.9956C195.877 58.2462 195.947 58.5262 195.979 58.8356C196.011 59.1449 196.027 59.4596 196.027 59.7796V65.1476H194.979V62.9796L195.283 63.1076C194.989 63.8489 194.533 64.4142 193.915 64.8036C193.296 65.1929 192.555 65.3876 191.691 65.3876ZM191.827 64.3716C192.376 64.3716 192.856 64.2729 193.267 64.0756C193.677 63.8782 194.008 63.6089 194.259 63.2676C194.509 62.9209 194.672 62.5316 194.747 62.0996C194.811 61.8222 194.845 61.5182 194.851 61.1876C194.856 60.8516 194.859 60.6009 194.859 60.4356L195.307 60.6676C194.907 60.7209 194.472 60.7742 194.003 60.8276C193.539 60.8809 193.08 60.9422 192.627 61.0116C192.179 61.0809 191.773 61.1636 191.411 61.2596C191.165 61.3289 190.928 61.4276 190.699 61.5556C190.469 61.6782 190.28 61.8436 190.131 62.0516C189.987 62.2596 189.915 62.5182 189.915 62.8276C189.915 63.0782 189.976 63.3209 190.099 63.5556C190.227 63.7902 190.429 63.9849 190.707 64.1396C190.989 64.2942 191.363 64.3716 191.827 64.3716ZM201.861 69.2276C201.419 69.2276 200.981 69.1609 200.549 69.0276C200.123 68.8996 199.728 68.6942 199.365 68.4116C199.003 68.1342 198.699 67.7716 198.453 67.3236L199.517 66.7316C199.757 67.2116 200.093 67.5556 200.525 67.7636C200.963 67.9769 201.408 68.0836 201.861 68.0836C202.485 68.0836 202.989 67.9662 203.373 67.7316C203.763 67.5022 204.045 67.1609 204.221 66.7076C204.397 66.2542 204.483 65.6889 204.477 65.0116V62.7076H204.613V56.5076H205.661V65.0276C205.661 65.2729 205.653 65.5076 205.637 65.7316C205.627 65.9609 205.603 66.1849 205.565 66.4036C205.464 67.0489 205.253 67.5796 204.933 67.9956C204.619 68.4116 204.203 68.7209 203.685 68.9236C203.173 69.1263 202.565 69.2276 201.861 69.2276ZM201.781 65.3876C200.976 65.3876 200.288 65.1876 199.717 64.7876C199.147 64.3822 198.709 63.8356 198.405 63.1476C198.101 62.4596 197.949 61.6836 197.949 60.8196C197.949 59.9609 198.099 59.1876 198.397 58.4996C198.701 57.8116 199.136 57.2676 199.701 56.8676C200.267 56.4676 200.944 56.2676 201.733 56.2676C202.544 56.2676 203.227 56.4649 203.781 56.8596C204.336 57.2542 204.755 57.7956 205.037 58.4836C205.325 59.1662 205.469 59.9449 205.469 60.8196C205.469 61.6782 205.328 62.4542 205.045 63.1476C204.763 63.8356 204.347 64.3822 203.797 64.7876C203.248 65.1876 202.576 65.3876 201.781 65.3876ZM201.901 64.2916C202.515 64.2916 203.021 64.1422 203.421 63.8436C203.821 63.5449 204.12 63.1342 204.317 62.6116C204.515 62.0836 204.613 61.4862 204.613 60.8196C204.613 60.1422 204.515 59.5449 204.317 59.0276C204.12 58.5049 203.821 58.0969 203.421 57.8036C203.027 57.5102 202.528 57.3636 201.925 57.3636C201.307 57.3636 200.795 57.5156 200.389 57.8196C199.984 58.1236 199.683 58.5369 199.485 59.0596C199.293 59.5822 199.197 60.1689 199.197 60.8196C199.197 61.4756 199.296 62.0676 199.493 62.5956C199.696 63.1182 199.997 63.5316 200.397 63.8356C200.797 64.1396 201.299 64.2916 201.901 64.2916ZM208.218 65.1476V56.5076H209.274V58.5876L209.066 58.3156C209.162 58.0596 209.287 57.8249 209.442 57.6116C209.597 57.3929 209.765 57.2142 209.946 57.0756C210.17 56.8782 210.431 56.7289 210.73 56.6276C211.029 56.5209 211.33 56.4596 211.634 56.4436C211.938 56.4222 212.215 56.4436 212.466 56.5076V57.6116C212.151 57.5316 211.807 57.5129 211.434 57.5556C211.061 57.5982 210.717 57.7476 210.402 58.0036C210.114 58.2276 209.898 58.4969 209.754 58.8116C209.61 59.1209 209.514 59.4516 209.466 59.8036C209.418 60.1502 209.394 60.4942 209.394 60.8356V65.1476H208.218ZM216.447 65.3876C215.797 65.3876 215.25 65.2702 214.807 65.0356C214.37 64.8009 214.042 64.4889 213.823 64.0996C213.605 63.7102 213.495 63.2862 213.495 62.8276C213.495 62.3582 213.589 61.9582 213.775 61.6276C213.967 61.2916 214.226 61.0169 214.551 60.8036C214.882 60.5902 215.263 60.4276 215.695 60.3156C216.133 60.2089 216.615 60.1156 217.143 60.0356C217.677 59.9502 218.197 59.8782 218.703 59.8196C219.215 59.7556 219.663 59.6942 220.047 59.6356L219.631 59.8916C219.647 59.0382 219.482 58.4062 219.135 57.9956C218.789 57.5849 218.186 57.3796 217.327 57.3796C216.735 57.3796 216.234 57.5129 215.823 57.7796C215.418 58.0462 215.133 58.4676 214.967 59.0436L213.823 58.7076C214.021 57.9342 214.418 57.3342 215.015 56.9076C215.613 56.4809 216.389 56.2676 217.343 56.2676C218.133 56.2676 218.802 56.4169 219.351 56.7156C219.906 57.0089 220.298 57.4356 220.527 57.9956C220.634 58.2462 220.703 58.5262 220.735 58.8356C220.767 59.1449 220.783 59.4596 220.783 59.7796V65.1476H219.735V62.9796L220.039 63.1076C219.746 63.8489 219.29 64.4142 218.671 64.8036C218.053 65.1929 217.311 65.3876 216.447 65.3876ZM216.583 64.3716C217.133 64.3716 217.613 64.2729 218.023 64.0756C218.434 63.8782 218.765 63.6089 219.015 63.2676C219.266 62.9209 219.429 62.5316 219.503 62.0996C219.567 61.8222 219.602 61.5182 219.607 61.1876C219.613 60.8516 219.615 60.6009 219.615 60.4356L220.063 60.6676C219.663 60.7209 219.229 60.7742 218.759 60.8276C218.295 60.8809 217.837 60.9422 217.383 61.0116C216.935 61.0809 216.53 61.1636 216.167 61.2596C215.922 61.3289 215.685 61.4276 215.455 61.5556C215.226 61.6782 215.037 61.8436 214.887 62.0516C214.743 62.2596 214.671 62.5182 214.671 62.8276C214.671 63.0782 214.733 63.3209 214.855 63.5556C214.983 63.7902 215.186 63.9849 215.463 64.1396C215.746 64.2942 216.119 64.3716 216.583 64.3716ZM233.49 65.1476L233.498 59.4756C233.498 58.8089 233.311 58.2862 232.938 57.9076C232.57 57.5236 232.101 57.3316 231.53 57.3316C231.205 57.3316 230.887 57.4062 230.578 57.5556C230.269 57.7049 230.013 57.9449 229.81 58.2756C229.613 58.6062 229.514 59.0382 229.514 59.5716L228.818 59.3716C228.802 58.7529 228.922 58.2116 229.178 57.7476C229.439 57.2836 229.797 56.9236 230.25 56.6676C230.709 56.4062 231.226 56.2756 231.802 56.2756C232.671 56.2756 233.367 56.5449 233.89 57.0836C234.413 57.6169 234.674 58.3396 234.674 59.2516L234.666 65.1476H233.49ZM223.178 65.1476V56.5076H224.234V58.6356H224.362V65.1476H223.178ZM228.346 65.1476L228.354 59.5556C228.354 58.8676 228.17 58.3262 227.802 57.9316C227.439 57.5316 226.959 57.3316 226.362 57.3316C225.765 57.3316 225.282 57.5369 224.914 57.9476C224.546 58.3529 224.362 58.8942 224.362 59.5716L223.658 59.1876C223.658 58.6329 223.789 58.1369 224.05 57.6996C224.311 57.2569 224.669 56.9102 225.122 56.6596C225.575 56.4036 226.09 56.2756 226.666 56.2756C227.215 56.2756 227.703 56.3929 228.13 56.6276C228.562 56.8622 228.901 57.2036 229.146 57.6516C229.391 58.0996 229.514 58.6436 229.514 59.2836L229.506 65.1476H228.346ZM237.293 65.1476V63.7796H238.661V65.1476H237.293ZM245.035 65.3876C244.166 65.3876 243.43 65.1929 242.827 64.8036C242.224 64.4142 241.766 63.8782 241.451 63.1956C241.142 62.5076 240.982 61.7182 240.971 60.8276C240.982 59.9209 241.147 59.1262 241.467 58.4436C241.787 57.7556 242.248 57.2222 242.851 56.8436C243.454 56.4596 244.184 56.2676 245.043 56.2676C245.918 56.2676 246.678 56.4809 247.323 56.9076C247.974 57.3342 248.419 57.9182 248.659 58.6596L247.507 59.0276C247.304 58.5102 246.982 58.1102 246.539 57.8276C246.102 57.5396 245.6 57.3956 245.035 57.3956C244.4 57.3956 243.875 57.5422 243.459 57.8356C243.043 58.1236 242.734 58.5262 242.531 59.0436C242.328 59.5609 242.224 60.1556 242.219 60.8276C242.23 61.8622 242.47 62.6942 242.939 63.3236C243.408 63.9476 244.107 64.2596 245.035 64.2596C245.622 64.2596 246.12 64.1262 246.531 63.8596C246.947 63.5876 247.262 63.1929 247.475 62.6756L248.659 63.0276C248.339 63.7956 247.87 64.3822 247.251 64.7876C246.632 65.1876 245.894 65.3876 245.035 65.3876ZM254.004 65.3876C253.145 65.3876 252.412 65.1929 251.804 64.8036C251.196 64.4142 250.729 63.8756 250.404 63.1876C250.079 62.4996 249.916 61.7102 249.916 60.8196C249.916 59.9129 250.081 59.1182 250.412 58.4356C250.743 57.7529 251.212 57.2222 251.82 56.8436C252.433 56.4596 253.161 56.2676 254.004 56.2676C254.868 56.2676 255.604 56.4622 256.212 56.8516C256.825 57.2356 257.292 57.7716 257.612 58.4596C257.937 59.1422 258.1 59.9289 258.1 60.8196C258.1 61.7262 257.937 62.5236 257.612 63.2116C257.287 63.8942 256.817 64.4276 256.204 64.8116C255.591 65.1956 254.857 65.3876 254.004 65.3876ZM254.004 64.2596C254.964 64.2596 255.679 63.9422 256.148 63.3076C256.617 62.6676 256.852 61.8382 256.852 60.8196C256.852 59.7742 256.615 58.9422 256.14 58.3236C255.671 57.7049 254.959 57.3956 254.004 57.3956C253.359 57.3956 252.825 57.5422 252.404 57.8356C251.988 58.1236 251.676 58.5262 251.468 59.0436C251.265 59.5556 251.164 60.1476 251.164 60.8196C251.164 61.8596 251.404 62.6942 251.884 63.3236C252.364 63.9476 253.071 64.2596 254.004 64.2596ZM270.489 65.1476L270.497 59.4756C270.497 58.8089 270.31 58.2862 269.937 57.9076C269.569 57.5236 269.1 57.3316 268.529 57.3316C268.204 57.3316 267.886 57.4062 267.577 57.5556C267.268 57.7049 267.012 57.9449 266.809 58.2756C266.612 58.6062 266.513 59.0382 266.513 59.5716L265.817 59.3716C265.801 58.7529 265.921 58.2116 266.177 57.7476C266.438 57.2836 266.796 56.9236 267.249 56.6676C267.708 56.4062 268.225 56.2756 268.801 56.2756C269.67 56.2756 270.366 56.5449 270.889 57.0836C271.412 57.6169 271.673 58.3396 271.673 59.2516L271.665 65.1476H270.489ZM260.177 65.1476V56.5076H261.233V58.6356H261.361V65.1476H260.177ZM265.345 65.1476L265.353 59.5556C265.353 58.8676 265.169 58.3262 264.801 57.9316C264.438 57.5316 263.958 57.3316 263.361 57.3316C262.764 57.3316 262.281 57.5369 261.913 57.9476C261.545 58.3529 261.361 58.8942 261.361 59.5716L260.657 59.1876C260.657 58.6329 260.788 58.1369 261.049 57.6996C261.31 57.2569 261.668 56.9102 262.121 56.6596C262.574 56.4036 263.089 56.2756 263.665 56.2756C264.214 56.2756 264.702 56.3929 265.129 56.6276C265.561 56.8622 265.9 57.2036 266.145 57.6516C266.39 58.0996 266.513 58.6436 266.513 59.2836L266.505 65.1476H265.345ZM276.979 53.6276H278.187L275.115 65.1476H273.907L276.979 53.6276ZM279.318 65.1476L282.694 60.7796L279.39 56.5076H280.798L283.382 59.8756L285.942 56.5076H287.35L284.046 60.7796L287.43 65.1476H286.014L283.382 61.6836L280.734 65.1476H279.318ZM288.075 65.1476L291.451 60.7796L288.147 56.5076H289.555L292.139 59.8756L294.699 56.5076H296.107L292.803 60.7796L296.187 65.1476H294.771L292.139 61.6836L289.491 65.1476H288.075ZM300.832 65.3876C300.027 65.3876 299.339 65.1876 298.768 64.7876C298.198 64.3822 297.76 63.8356 297.456 63.1476C297.152 62.4596 297 61.6836 297 60.8196C297 59.9609 297.15 59.1876 297.448 58.4996C297.752 57.8116 298.187 57.2676 298.752 56.8676C299.318 56.4676 299.995 56.2676 300.784 56.2676C301.595 56.2676 302.278 56.4649 302.832 56.8596C303.387 57.2542 303.806 57.7956 304.088 58.4836C304.376 59.1662 304.52 59.9449 304.52 60.8196C304.52 61.6782 304.379 62.4542 304.096 63.1476C303.814 63.8356 303.398 64.3822 302.848 64.7876C302.299 65.1876 301.627 65.3876 300.832 65.3876ZM300.952 64.2916C301.566 64.2916 302.072 64.1422 302.472 63.8436C302.872 63.5449 303.171 63.1342 303.368 62.6116C303.566 62.0836 303.664 61.4862 303.664 60.8196C303.664 60.1422 303.566 59.5449 303.368 59.0276C303.171 58.5049 302.872 58.0969 302.472 57.8036C302.078 57.5102 301.579 57.3636 300.976 57.3636C300.358 57.3636 299.846 57.5156 299.44 57.8196C299.035 58.1236 298.734 58.5369 298.536 59.0596C298.344 59.5822 298.248 60.1689 298.248 60.8196C298.248 61.4756 298.347 62.0676 298.544 62.5956C298.747 63.1182 299.048 63.5316 299.448 63.8356C299.848 64.1396 300.35 64.2916 300.952 64.2916ZM303.664 65.1476V58.6436H303.536V53.6276H304.72V65.1476H303.664ZM310.893 65.3876C310.034 65.3876 309.301 65.1929 308.693 64.8036C308.085 64.4142 307.618 63.8756 307.293 63.1876C306.968 62.4996 306.805 61.7102 306.805 60.8196C306.805 59.9129 306.97 59.1182 307.301 58.4356C307.632 57.7529 308.101 57.2222 308.709 56.8436C309.322 56.4596 310.05 56.2676 310.893 56.2676C311.757 56.2676 312.493 56.4622 313.101 56.8516C313.714 57.2356 314.181 57.7716 314.501 58.4596C314.826 59.1422 314.989 59.9289 314.989 60.8196C314.989 61.7262 314.826 62.5236 314.501 63.2116C314.176 63.8942 313.706 64.4276 313.093 64.8116C312.48 65.1956 311.746 65.3876 310.893 65.3876ZM310.893 64.2596C311.853 64.2596 312.568 63.9422 313.037 63.3076C313.506 62.6676 313.741 61.8382 313.741 60.8196C313.741 59.7742 313.504 58.9422 313.029 58.3236C312.56 57.7049 311.848 57.3956 310.893 57.3956C310.248 57.3956 309.714 57.5422 309.293 57.8356C308.877 58.1236 308.565 58.5262 308.357 59.0436C308.154 59.5556 308.053 60.1476 308.053 60.8196C308.053 61.8596 308.293 62.6942 308.773 63.3236C309.253 63.9476 309.96 64.2596 310.893 64.2596ZM321.778 65.1476C321.292 65.2489 320.812 65.2889 320.338 65.2676C319.868 65.2462 319.447 65.1449 319.074 64.9636C318.706 64.7822 318.426 64.4996 318.234 64.1156C318.079 63.7956 317.994 63.4729 317.978 63.1476C317.967 62.8169 317.962 62.4409 317.962 62.0196V54.1076H319.13V61.9716C319.13 62.3342 319.132 62.6382 319.138 62.8836C319.148 63.1236 319.204 63.3369 319.306 63.5236C319.498 63.8809 319.802 64.0942 320.218 64.1636C320.639 64.2329 321.159 64.2169 321.778 64.1156V65.1476ZM316.114 57.5156V56.5076H321.778V57.5156H316.114Z" fill="#6A7282"/>
<path d="M366.815 93.1285C366.815 104.114 358.053 113.253 347.046 113.376L347.047 113.377C344.378 113.413 341.729 112.913 339.258 111.907C336.786 110.901 334.541 109.408 332.657 107.518L332.647 107.509L332.638 107.5C330.066 104.778 327.383 100.173 325.373 96.3346C324.359 94.3992 323.501 92.6294 322.897 91.3434C322.595 90.7001 322.355 90.1768 322.191 89.8141C322.109 89.6329 322.046 89.4915 322.004 89.3951C321.982 89.347 321.966 89.3099 321.955 89.2848V89.2828C321.662 88.7574 321.473 88.1805 321.401 87.5826C321.327 86.9614 321.379 86.3314 321.555 85.7311C321.732 85.1309 322.028 84.5727 322.427 84.0905C322.824 83.6095 323.315 83.2136 323.869 82.9274L324.081 82.8239C326.284 81.8147 328.86 82.7652 330.041 84.8131L334.793 93.0592L334.797 93.0651L334.8 93.0719C334.836 93.1369 334.891 93.1901 334.957 93.2242C335.022 93.2579 335.096 93.2719 335.17 93.2643C335.358 93.2251 335.529 93.1249 335.653 92.9762C335.783 92.82 335.853 92.6226 335.85 92.4196L335.849 92.4069H335.85V65.3102C335.85 64.6846 335.976 64.0652 336.221 63.4899C336.467 62.9143 336.828 62.3946 337.281 61.9625C337.734 61.5305 338.27 61.1949 338.856 60.9762C339.443 60.7575 340.068 60.6599 340.693 60.6901L340.692 60.691C343.211 60.8086 345.092 62.9637 345.092 65.4078V81.6051C345.091 81.7162 345.114 81.8263 345.158 81.9283C345.202 82.0303 345.266 82.1219 345.347 82.1979C345.428 82.2738 345.524 82.3323 345.629 82.3698C345.732 82.4066 345.841 82.4222 345.95 82.4156C346.158 82.3943 346.352 82.2968 346.493 82.1412C346.637 81.9823 346.715 81.7746 346.712 81.5602V77.9821C346.711 77.3567 346.838 76.7378 347.084 76.1627C347.33 75.5871 347.69 75.0675 348.143 74.6354C348.596 74.2033 349.132 73.8677 349.719 73.649C350.305 73.4304 350.93 73.3328 351.555 73.3629H351.554C354.073 73.4805 355.954 75.6357 355.954 78.0797V83.4156C355.954 83.5267 355.976 83.6369 356.02 83.7389C356.064 83.8408 356.129 83.9325 356.21 84.0084C356.291 84.0844 356.386 84.1429 356.491 84.1803C356.591 84.2161 356.697 84.2314 356.803 84.2262C357.015 84.2067 357.212 84.1093 357.354 83.9518C357.498 83.7928 357.577 83.5851 357.574 83.3707V81.7096C357.574 79.2621 359.457 77.1184 361.97 76.9928H361.972C362.597 76.9627 363.221 77.06 363.806 77.278C364.392 77.4959 364.928 77.8305 365.381 78.2614C365.833 78.692 366.194 79.2099 366.44 79.7838C366.687 80.3581 366.814 80.9772 366.815 81.6022V93.1285Z" fill="url(#paint0_linear_115_1481)" stroke="url(#paint1_linear_115_1481)" stroke-width="2"/>
<g filter="url(#filter2_d_115_1481)">
<rect x="31.8672" y="109" width="279.336" height="48" rx="6" fill="white"/>
<rect x="32.3672" y="109.5" width="278.336" height="47" rx="5.5" stroke="#D1D5DC"/>
</g>
<g filter="url(#filter3_d_115_1481)">
<rect x="223.412" y="118" width="77.8152" height="30" rx="8" fill="url(#paint2_linear_115_1481)" shape-rendering="crispEdges"/>
<path d="M245.412 130.375V137.125C245.412 137.224 245.373 137.32 245.303 137.39C245.232 137.46 245.137 137.5 245.037 137.5H238.287C238.188 137.5 238.093 137.46 238.022 137.39C237.952 137.32 237.912 137.224 237.912 137.125V130.375C237.912 130.276 237.952 130.18 238.022 130.11C238.093 130.04 238.188 130 238.287 130H245.037C245.137 130 245.232 130.04 245.303 130.11C245.373 130.18 245.412 130.276 245.412 130.375ZM246.537 128.5H239.787C239.688 128.5 239.593 128.54 239.522 128.61C239.452 128.68 239.412 128.776 239.412 128.875C239.412 128.974 239.452 129.07 239.522 129.14C239.593 129.21 239.688 129.25 239.787 129.25H246.162V135.625C246.162 135.724 246.202 135.82 246.272 135.89C246.343 135.96 246.438 136 246.537 136C246.637 136 246.732 135.96 246.803 135.89C246.873 135.82 246.912 135.724 246.912 135.625V128.875C246.912 128.776 246.873 128.68 246.803 128.61C246.732 128.54 246.637 128.5 246.537 128.5Z" fill="#E5E7EB"/>
<path d="M256.53 138V129.36H259.944C260.028 129.36 260.128 129.364 260.244 129.372C260.36 129.376 260.472 129.388 260.58 129.408C261.048 129.48 261.44 129.64 261.756 129.888C262.076 130.136 262.316 130.45 262.476 130.83C262.636 131.206 262.716 131.624 262.716 132.084C262.716 132.54 262.634 132.958 262.47 133.338C262.31 133.714 262.07 134.028 261.75 134.28C261.434 134.528 261.044 134.688 260.58 134.76C260.472 134.776 260.36 134.788 260.244 134.796C260.128 134.804 260.028 134.808 259.944 134.808H257.598V138H256.53ZM257.598 133.794H259.908C259.984 133.794 260.07 133.79 260.166 133.782C260.266 133.774 260.36 133.76 260.448 133.74C260.724 133.676 260.948 133.56 261.12 133.392C261.296 133.22 261.424 133.02 261.504 132.792C261.584 132.56 261.624 132.324 261.624 132.084C261.624 131.844 261.584 131.61 261.504 131.382C261.424 131.15 261.296 130.948 261.12 130.776C260.948 130.604 260.724 130.488 260.448 130.428C260.36 130.404 260.266 130.39 260.166 130.386C260.07 130.378 259.984 130.374 259.908 130.374H257.598V133.794ZM265.869 138.18C265.385 138.18 264.979 138.092 264.651 137.916C264.327 137.736 264.081 137.5 263.913 137.208C263.749 136.916 263.667 136.596 263.667 136.248C263.667 135.908 263.731 135.614 263.859 135.366C263.991 135.114 264.175 134.906 264.411 134.742C264.647 134.574 264.929 134.442 265.257 134.346C265.565 134.262 265.909 134.19 266.289 134.13C266.673 134.066 267.061 134.008 267.453 133.956C267.845 133.904 268.211 133.854 268.551 133.806L268.167 134.028C268.179 133.452 268.063 133.026 267.819 132.75C267.579 132.474 267.163 132.336 266.571 132.336C266.179 132.336 265.835 132.426 265.539 132.606C265.247 132.782 265.041 133.07 264.921 133.47L263.907 133.164C264.063 132.596 264.365 132.15 264.813 131.826C265.261 131.502 265.851 131.34 266.583 131.34C267.171 131.34 267.675 131.446 268.095 131.658C268.519 131.866 268.823 132.182 269.007 132.606C269.099 132.806 269.157 133.024 269.181 133.26C269.205 133.492 269.217 133.736 269.217 133.992V138H268.269V136.446L268.491 136.59C268.247 137.114 267.905 137.51 267.465 137.778C267.029 138.046 266.497 138.18 265.869 138.18ZM266.031 137.286C266.415 137.286 266.747 137.218 267.027 137.082C267.311 136.942 267.539 136.76 267.711 136.536C267.883 136.308 267.995 136.06 268.047 135.792C268.107 135.592 268.139 135.37 268.143 135.126C268.151 134.878 268.155 134.688 268.155 134.556L268.527 134.718C268.179 134.766 267.837 134.812 267.501 134.856C267.165 134.9 266.847 134.948 266.547 135C266.247 135.048 265.977 135.106 265.737 135.174C265.561 135.23 265.395 135.302 265.239 135.39C265.087 135.478 264.963 135.592 264.867 135.732C264.775 135.868 264.729 136.038 264.729 136.242C264.729 136.418 264.773 136.586 264.861 136.746C264.953 136.906 265.093 137.036 265.281 137.136C265.473 137.236 265.723 137.286 266.031 137.286ZM273.585 138.174C272.813 138.174 272.179 138.006 271.683 137.67C271.191 137.33 270.889 136.856 270.777 136.248L271.869 136.074C271.957 136.426 272.159 136.706 272.475 136.914C272.791 137.118 273.183 137.22 273.651 137.22C274.095 137.22 274.443 137.128 274.695 136.944C274.947 136.76 275.073 136.51 275.073 136.194C275.073 136.01 275.031 135.862 274.947 135.75C274.863 135.634 274.689 135.526 274.425 135.426C274.165 135.326 273.771 135.206 273.243 135.066C272.671 134.914 272.221 134.756 271.893 134.592C271.565 134.428 271.331 134.238 271.191 134.022C271.051 133.806 270.981 133.544 270.981 133.236C270.981 132.856 271.085 132.524 271.293 132.24C271.501 131.952 271.791 131.73 272.163 131.574C272.539 131.418 272.975 131.34 273.471 131.34C273.963 131.34 274.403 131.418 274.791 131.574C275.179 131.73 275.491 131.952 275.727 132.24C275.967 132.524 276.109 132.856 276.153 133.236L275.061 133.434C275.009 133.086 274.841 132.812 274.557 132.612C274.277 132.412 273.915 132.306 273.471 132.294C273.051 132.278 272.709 132.352 272.445 132.516C272.185 132.68 272.055 132.902 272.055 133.182C272.055 133.338 272.103 133.472 272.199 133.584C272.299 133.696 272.481 133.802 272.745 133.902C273.013 134.002 273.401 134.116 273.909 134.244C274.481 134.388 274.931 134.546 275.259 134.718C275.591 134.886 275.827 135.086 275.967 135.318C276.107 135.546 276.177 135.828 276.177 136.164C276.177 136.788 275.947 137.28 275.487 137.64C275.027 137.996 274.393 138.174 273.585 138.174ZM281.478 138C281.094 138.076 280.714 138.106 280.338 138.09C279.966 138.078 279.634 138.004 279.342 137.868C279.05 137.728 278.828 137.512 278.676 137.22C278.548 136.964 278.478 136.706 278.466 136.446C278.458 136.182 278.454 135.884 278.454 135.552V129.72H279.522V135.504C279.522 135.768 279.524 135.994 279.528 136.182C279.536 136.37 279.578 136.532 279.654 136.668C279.798 136.924 280.026 137.074 280.338 137.118C280.654 137.162 281.034 137.15 281.478 137.082V138ZM277.14 132.402V131.52H281.478V132.402H277.14ZM285.692 138.18C285.056 138.18 284.5 138.04 284.024 137.76C283.552 137.476 283.184 137.082 282.92 136.578C282.656 136.07 282.524 135.478 282.524 134.802C282.524 134.094 282.654 133.482 282.914 132.966C283.174 132.446 283.536 132.046 284 131.766C284.468 131.482 285.016 131.34 285.644 131.34C286.296 131.34 286.85 131.49 287.306 131.79C287.766 132.09 288.11 132.518 288.338 133.074C288.57 133.63 288.67 134.292 288.638 135.06H287.558V134.676C287.546 133.88 287.384 133.286 287.072 132.894C286.76 132.498 286.296 132.3 285.68 132.3C285.02 132.3 284.518 132.512 284.174 132.936C283.83 133.36 283.658 133.968 283.658 134.76C283.658 135.524 283.83 136.116 284.174 136.536C284.518 136.956 285.008 137.166 285.644 137.166C286.072 137.166 286.444 137.068 286.76 136.872C287.076 136.676 287.324 136.394 287.504 136.026L288.53 136.38C288.278 136.952 287.898 137.396 287.39 137.712C286.886 138.024 286.32 138.18 285.692 138.18ZM283.298 135.06V134.202H288.086V135.06H283.298Z" fill="#F8FAFC"/>
</g>
<path d="M7.59098 162.795C7.38147 163.004 7.21523 163.252 7.10181 163.525C6.98838 163.798 6.92999 164.091 6.92999 164.387C6.92999 164.683 6.98838 164.976 7.10181 165.249C7.21523 165.522 7.38147 165.77 7.59098 165.979L9.96753 168.35C10.1763 168.559 10.4244 168.725 10.6976 168.839C10.9707 168.952 11.2636 169.011 11.5594 169.011C11.8552 169.011 12.148 168.952 12.4212 168.839C12.6944 168.725 12.9425 168.559 13.1513 168.35L23.7437 157.755L27.3469 167.151C27.3469 167.17 27.3619 167.19 27.3713 167.211C27.6005 167.746 27.982 168.201 28.4682 168.52C28.9544 168.84 29.5238 169.009 30.1055 169.007H30.2535C30.8601 168.981 31.4442 168.77 31.9269 168.402C32.4095 168.033 32.7674 167.525 32.9521 166.947L42.7411 136.968C42.9092 136.443 42.9295 135.883 42.7999 135.348C42.6703 134.813 42.3958 134.324 42.0065 133.934C41.6172 133.545 41.1281 133.27 40.593 133.141C40.0579 133.011 39.4974 133.031 38.9731 133.2L8.99369 142.989C8.42072 143.18 7.91907 143.541 7.55457 144.022C7.19007 144.504 6.97974 145.085 6.95119 145.689C6.92263 146.292 7.07718 146.89 7.39456 147.404C7.71194 147.918 8.17731 148.325 8.72963 148.569L8.78956 148.594L18.1853 152.203L7.59098 162.795ZM30.9052 133.05C30.5078 133.05 30.1267 132.892 29.8458 132.611C29.5648 132.33 29.407 131.949 29.407 131.551V130.053C29.407 129.656 29.5648 129.275 29.8458 128.994C30.1267 128.713 30.5078 128.555 30.9052 128.555C31.3025 128.555 31.6836 128.713 31.9646 128.994C32.2456 129.275 32.4034 129.656 32.4034 130.053V131.551C32.4034 131.949 32.2456 132.33 31.9646 132.611C31.6836 132.892 31.3025 133.05 30.9052 133.05ZM45.8874 146.534H44.3892C43.9918 146.534 43.6107 146.376 43.3298 146.095C43.0488 145.814 42.891 145.433 42.891 145.035C42.891 144.638 43.0488 144.257 43.3298 143.976C43.6107 143.695 43.9918 143.537 44.3892 143.537H45.8874C46.2848 143.537 46.6658 143.695 46.9468 143.976C47.2278 144.257 47.3856 144.638 47.3856 145.035C47.3856 145.433 47.2278 145.814 46.9468 146.095C46.6658 146.376 46.2848 146.534 45.8874 146.534ZM25.5827 134.391C25.4067 134.479 25.215 134.531 25.0186 134.545C24.8221 134.559 24.6249 134.535 24.4381 134.472C24.2513 134.41 24.0786 134.312 23.9299 134.183C23.7812 134.053 23.6593 133.896 23.5714 133.72L22.0732 130.724C21.8953 130.368 21.866 129.957 21.9916 129.58C22.1171 129.203 22.3873 128.891 22.7427 128.713C23.0981 128.535 23.5095 128.506 23.8866 128.632C24.2636 128.757 24.5753 129.027 24.7531 129.383L26.2513 132.379C26.3396 132.555 26.3923 132.747 26.4064 132.943C26.4206 133.139 26.3959 133.337 26.3338 133.523C26.2717 133.71 26.1734 133.883 26.0446 134.032C25.9157 134.181 25.7588 134.303 25.5827 134.391ZM43.5614 149.689L46.5579 151.188C46.9132 151.365 47.1834 151.677 47.309 152.054C47.4345 152.431 47.4052 152.843 47.2274 153.198C47.0496 153.553 46.7378 153.824 46.3608 153.949C45.9838 154.075 45.5723 154.045 45.2169 153.868L42.2205 152.369C42.0445 152.281 41.8876 152.159 41.7587 152.011C41.6299 151.862 41.5315 151.689 41.4694 151.503C41.4072 151.316 41.3824 151.119 41.3964 150.923C41.4104 150.726 41.4629 150.535 41.551 150.359C41.639 150.183 41.7609 150.026 41.9096 149.897C42.0582 149.768 42.2308 149.67 42.4175 149.608C42.6042 149.546 42.8013 149.521 42.9976 149.535C43.1939 149.549 43.3854 149.601 43.5614 149.689Z" fill="url(#paint3_linear_115_1481)"/>
<defs>
<filter id="filter0_d_115_1481" x="9.84839" y="0" width="379.242" height="123" filterUnits="userSpaceOnUse" color-interpolation-filters="sRGB">
<feFlood flood-opacity="0" result="BackgroundImageFix"/>
<feColorMatrix in="SourceAlpha" type="matrix" values="0 0 0 0 0 0 0 0 0 0 0 0 0 0 0 0 0 0 127 0" result="hardAlpha"/>
<feOffset dy="2"/>
<feGaussianBlur stdDeviation="15"/>
<feComposite in2="hardAlpha" operator="out"/>
<feColorMatrix type="matrix" values="0 0 0 0 0.364706 0 0 0 0 0.392157 0 0 0 0 0.631373 0 0 0 0.2 0"/>
<feBlend mode="normal" in2="BackgroundImageFix" result="effect1_dropShadow_115_1481"/>
<feBlend mode="normal" in="SourceGraphic" in2="effect1_dropShadow_115_1481" result="shape"/>
</filter>
<filter id="filter1_d_115_1481" x="19.8247" y="10" width="359.289" height="103" filterUnits="userSpaceOnUse" color-interpolation-filters="sRGB">
<feFlood flood-opacity="0" result="BackgroundImageFix"/>
<feColorMatrix in="SourceAlpha" type="matrix" values="0 0 0 0 0 0 0 0 0 0 0 0 0 0 0 0 0 0 127 0" result="hardAlpha"/>
<feOffset dy="2"/>
<feGaussianBlur stdDeviation="15"/>
<feComposite in2="hardAlpha" operator="out"/>
<feColorMatrix type="matrix" values="0 0 0 0 0.364706 0 0 0 0 0.392157 0 0 0 0 0.631373 0 0 0 0.2 0"/>
<feBlend mode="normal" in2="BackgroundImageFix" result="effect1_dropShadow_115_1481"/>
<feBlend mode="normal" in="SourceGraphic" in2="effect1_dropShadow_115_1481" result="shape"/>
</filter>
<filter id="filter2_d_115_1481" x="1.86719" y="81" width="339.336" height="108" filterUnits="userSpaceOnUse" color-interpolation-filters="sRGB">
<feFlood flood-opacity="0" result="BackgroundImageFix"/>
<feColorMatrix in="SourceAlpha" type="matrix" values="0 0 0 0 0 0 0 0 0 0 0 0 0 0 0 0 0 0 127 0" result="hardAlpha"/>
<feOffset dy="2"/>
<feGaussianBlur stdDeviation="15"/>
<feComposite in2="hardAlpha" operator="out"/>
<feColorMatrix type="matrix" values="0 0 0 0 0.364706 0 0 0 0 0.392157 0 0 0 0 0.631373 0 0 0 0.2 0"/>
<feBlend mode="normal" in2="BackgroundImageFix" result="effect1_dropShadow_115_1481"/>
<feBlend mode="normal" in="SourceGraphic" in2="effect1_dropShadow_115_1481" result="shape"/>
</filter>
<filter id="filter3_d_115_1481" x="203.412" y="100" width="117.815" height="70" filterUnits="userSpaceOnUse" color-interpolation-filters="sRGB">
<feFlood flood-opacity="0" result="BackgroundImageFix"/>
<feColorMatrix in="SourceAlpha" type="matrix" values="0 0 0 0 0 0 0 0 0 0 0 0 0 0 0 0 0 0 127 0" result="hardAlpha"/>
<feOffset dy="2"/>
<feGaussianBlur stdDeviation="10"/>
<feComposite in2="hardAlpha" operator="out"/>
<feColorMatrix type="matrix" values="0 0 0 0 0 0 0 0 0 0 0 0 0 0 0 0 0 0 0.25 0"/>
<feBlend mode="normal" in2="BackgroundImageFix" result="effect1_dropShadow_115_1481"/>
<feBlend mode="normal" in="SourceGraphic" in2="effect1_dropShadow_115_1481" result="shape"/>
</filter>
<linearGradient id="paint0_linear_115_1481" x1="344.092" y1="61.6852" x2="344.092" y2="112.379" gradientUnits="userSpaceOnUse">
<stop stop-color="#2F3687"/>
<stop offset="1" stop-color="#959DF2"/>
</linearGradient>
<linearGradient id="paint1_linear_115_1481" x1="344.092" y1="61.6852" x2="344.092" y2="112.379" gradientUnits="userSpaceOnUse">
<stop stop-color="#E8EAEB"/>
<stop offset="1" stop-color="#B3B3B3"/>
</linearGradient>
<linearGradient id="paint2_linear_115_1481" x1="220.013" y1="118" x2="310.086" y2="138.415" gradientUnits="userSpaceOnUse">
<stop stop-color="#2F3687"/>
<stop offset="1" stop-color="#8F9ED9"/>
</linearGradient>
<linearGradient id="paint3_linear_115_1481" x1="27.1579" y1="169.011" x2="67.362" y2="103.085" gradientUnits="userSpaceOnUse">
<stop stop-color="#00F059"/>
<stop offset="0.615385" stop-color="#004018"/>
</linearGradient>
</defs>
</svg>
